<?xml version="1.0" encoding="UTF-8" standalone="no"?>
<svg
   xmlns:dc="http://purl.org/dc/elements/1.1/"
   xmlns:cc="http://creativecommons.org/ns#"
   xmlns:rdf="http://www.w3.org/1999/02/22-rdf-syntax-ns#"
   xmlns:svg="http://www.w3.org/2000/svg"
   xmlns="http://www.w3.org/2000/svg"
   xmlns:sodipodi="http://sodipodi.sourceforge.net/DTD/sodipodi-0.dtd"
   xmlns:inkscape="http://www.inkscape.org/namespaces/inkscape"
   width="133px"
   height="31px"
   viewBox="0 0 133 31"
   version="1.1"
   id="svg11"
   sodipodi:docname="logo.svg"
   inkscape:version="0.92.4 5da689c313, 2019-01-14">
  <metadata
     id="metadata17">
    <rdf:RDF>
      <cc:Work
         rdf:about="">
        <dc:format>image/svg+xml</dc:format>
        <dc:type
           rdf:resource="http://purl.org/dc/dcmitype/StillImage" />
      </cc:Work>
    </rdf:RDF>
  </metadata>
  <defs
     id="defs15" />
  <sodipodi:namedview
     pagecolor="#ffffff"
     bordercolor="#666666"
     borderopacity="1"
     objecttolerance="10"
     gridtolerance="10"
     guidetolerance="10"
     inkscape:pageopacity="0"
     inkscape:pageshadow="2"
     inkscape:window-width="1866"
     inkscape:window-height="1029"
     id="namedview13"
     showgrid="false"
     inkscape:zoom="8.3198874"
     inkscape:cx="58.369535"
     inkscape:cy="16.665373"
     inkscape:window-x="1334"
     inkscape:window-y="25"
     inkscape:window-maximized="1"
     inkscape:current-layer="svg11" />
  <!-- Generator: Sketch 55 (78076) - https://sketchapp.com -->
  <title
     id="title2">logo</title>
  <desc
     id="desc4">Created with Sketch.</desc>
  <g
     id="g29">
    <path
       d="m 18.285736,14.571415 c 0,-2.51786 -2.053574,-4.571434 -4.571434,-4.571434 -2.51786,0 -4.571434,2.053574 -4.571434,4.571434 0,2.51786 2.053574,4.571434 4.571434,4.571434 2.51786,0 4.571434,-2.053574 4.571434,-4.571434 z m 2.464289,0 c 0,3.892862 -3.142861,7.035723 -7.035723,7.035723 -3.8928617,0 -7.0357226,-3.142861 -7.0357226,-7.035723 0,-3.892862 3.1428609,-7.0357227 7.0357226,-7.0357227 3.892862,0 7.035723,3.1428607 7.035723,7.0357227 z m 1.928573,-7.3214373 c 0,0.9107153 -0.732143,1.6428591 -1.642859,1.6428591 -0.910715,0 -1.642859,-0.7321438 -1.642859,-1.6428591 0,-0.9107154 0.732144,-1.6428592 1.642859,-1.6428592 0.910716,0 1.642859,0.7321438 1.642859,1.6428592 z M 13.714302,3.3214015 c -2.000002,0 -6.2857217,-0.1607144 -8.0892953,0.5535721 C 5.000006,4.1249739 4.5357197,4.4285457 4.0535763,4.9106891 3.5714328,5.3928326 3.267861,5.8571188 3.0178607,6.4821196 2.3035742,8.2856932 2.4642886,12.571413 2.4642886,14.571415 c 0,2.000002 -0.1607144,6.285722 0.5535721,8.089295 0.2500003,0.625001 0.5535721,1.089287 1.0357156,1.571431 0.4821434,0.482143 0.9464297,0.785715 1.5714304,1.035715 1.8035736,0.714287 6.0892933,0.553572 8.0892953,0.553572 2.000002,0 6.285722,0.160715 8.089295,-0.553572 0.625001,-0.25 1.089287,-0.553572 1.571431,-1.035715 0.482143,-0.482144 0.785715,-0.94643 1.035715,-1.571431 0.714287,-1.803573 0.553573,-6.089293 0.553573,-8.089295 0,-2.000002 0.160714,-6.2857218 -0.553573,-8.0892954 -0.25,-0.6250008 -0.553572,-1.089287 -1.035715,-1.5714305 C 22.892884,4.4285457 22.428598,4.1249739 21.803597,3.8749736 20.000024,3.1606871 15.714304,3.3214015 13.714302,3.3214015 Z M 27.428604,14.571415 c 0,1.892859 0.01786,3.767862 -0.08929,5.660721 -0.107143,2.196431 -0.607143,4.142862 -2.214288,5.750007 -1.607145,1.607145 -3.553576,2.107145 -5.750007,2.214288 -1.892859,0.107143 -3.767861,0.08929 -5.660721,0.08929 -1.892859,0 -3.7678616,0.01786 -5.660721,-0.08929 C 5.8571498,28.089288 3.910719,27.589288 2.3035742,25.982143 0.6964294,24.374998 0.19642881,22.428567 0.08928582,20.232136 -0.01785716,18.339277 0,16.464274 0,14.571415 0,12.678556 -0.01785716,10.803553 0.08928582,8.9106939 0.19642881,6.7142627 0.6964294,4.7678318 2.3035742,3.1606871 3.910719,1.5535423 5.8571498,1.0535417 8.053581,0.9463987 c 1.8928594,-0.107143 3.767862,-0.089286 5.660721,-0.089286 1.89286,0 3.767862,-0.017857 5.660721,0.089286 2.196431,0.107143 4.142862,0.6071436 5.750007,2.2142884 1.607145,1.6071447 2.107145,3.5535756 2.214288,5.7500068 0.107143,1.8928591 0.08929,3.7678621 0.08929,5.6607211 z"
       id=""
       inkscape:connector-curvature="0"
       style="fill:#000000;fill-rule:nonzero;stroke:none;stroke-width:1" />
  </g>
  <text
     xml:space="preserve"
     style="font-style:normal;font-variant:normal;font-weight:normal;font-stretch:normal;font-size:29.8340683px;line-height:1.25;font-family:Billabong;-inkscape-font-specification:Billabong;letter-spacing:0px;word-spacing:0px;fill:#1d1d1b;fill-opacity:1;stroke:none;stroke-width:0.99999994"
     x="34.481911"
     y="25.010662"
     id="text33"><tspan
       sodipodi:role="line"
       id="tspan31"
       x="34.481911"
       y="25.010662"
       style="stroke-width:0.99999994">Instarocket</tspan></text>
</svg>
